<svg xmlns="http://www.w3.org/2000/svg" viewBox="0 0 95.4 19.44"><defs><style>.cls-1{fill:#fff;}</style></defs><g id="Layer_2" data-name="Layer 2"><g id="Layer_1-2" data-name="Layer 1"><path class="cls-1" d="M6.83,10.65,0,0H4L8.58,7.41,13.1,0h4.07L10.34,10.65v8.41H6.83Z"/><path class="cls-1" d="M18.4,0H33V3.34H21.92V7.62h7.76V11H21.92v4.76H33v3.34H18.4Z"/><path class="cls-1" d="M34.57,0h3.69l4.31,11.31L46.91,1l4.41,10.28L55.56,0h3.72l-8,19.44-4.41-11-4.59,11Z"/><path class="cls-1" d="M67.9,0H70L78.1,19.06H74.31l-1.48-3.58H64.76l-1.45,3.58H59.56Zm3.69,12.34L68.83,5.51,66,12.34Z"/><path class="cls-1" d="M85.06,10.65,78.24,0h4l4.55,7.41L91.33,0H95.4L88.58,10.65v8.41H85.06Z"/></g></g></svg>