<?xml version="1.0" encoding="utf-8"?>
<!-- Generator: Adobe Illustrator 24.1.2, SVG Export Plug-In . SVG Version: 6.00 Build 0)  -->
<svg version="1.1" id="Layer_1" xmlns="http://www.w3.org/2000/svg" xmlns:xlink="http://www.w3.org/1999/xlink" x="0px" y="0px"
	 viewBox="0 0 113.9 113.9" style="enable-background:new 0 0 113.9 113.9;" xml:space="preserve">
<style type="text/css">
	.st0{fill:#FFFFFF;}
</style>
<g id="Layer_1-2">
	<g>
		<path class="st0" d="M72.5,88.4H41.4c-8.8,0-15.9-7.1-15.9-15.9V41.4c0-8.8,7.1-15.9,15.9-15.9h31.1c8.8,0,15.9,7.1,15.9,15.9
			v31.1C88.4,81.3,81.3,88.4,72.5,88.4z M41.4,31.5c-5.5,0-9.9,4.4-9.9,9.9v31.1c0,5.5,4.4,9.9,9.9,9.9h31.1c5.5,0,9.9-4.4,9.9-9.9
			V41.4c0-5.5-4.4-9.9-9.9-9.9H41.4z"/>
	</g>
	<g>
		<path class="st0" d="M57,73.8c-9.4,0-17-7.6-17-17s7.6-17,17-17s17,7.6,17,17S66.4,73.8,57,73.8z M57,45.8c-6.1,0-11,4.9-11,11
			s4.9,11,11,11s11-4.9,11-11S63.1,45.8,57,45.8z"/>
	</g>
	<circle class="st0" cx="74.3" cy="39.9" r="3"/>
	<g>
		<path class="st0" d="M57,113.9c-31.4,0-57-25.6-57-57c0-31.4,25.6-57,57-57s57,25.6,57,57C114,88.3,88.4,113.9,57,113.9z M57,4.9
			c-28.7,0-52,23.3-52,52c0,28.7,23.3,52,52,52s52-23.3,52-52C109,28.2,85.7,4.9,57,4.9z"/>
	</g>
</g>
</svg>
