<?xml version="1.0" encoding="utf-8"?>
<!-- Generator: Adobe Illustrator 24.1.2, SVG Export Plug-In . SVG Version: 6.00 Build 0)  -->
<svg version="1.1" id="Layer_1" xmlns="http://www.w3.org/2000/svg" xmlns:xlink="http://www.w3.org/1999/xlink" x="0px" y="0px"
	 viewBox="0 0 113.9 113.9" style="enable-background:new 0 0 113.9 113.9;" xml:space="preserve">
<style type="text/css">
	.st0{fill:#FFFFFF;}
	.st1{fill:none;stroke:#FFFFFF;stroke-width:5;stroke-miterlimit:10;}
</style>
<g id="Layer_2_1_">
	<g id="Layer_1-2">
		<path class="st0" d="M48.6,49.7c0-0.6,0.4-1,1-1c0.2,0,0.3,0,0.5,0.1l5.4,2.7V36.8H44.5c-13.3,0-16.7,3.8-16.7,13.5V57h20.8V49.7z
			"/>
		<path class="st0" d="M64.8,57.9l-9.4,4.6V77h10.9C79.6,77,83,73.2,83,63.5V57H65.3C65.3,57.4,65.1,57.7,64.8,57.9z"/>
		<path class="st0" d="M66.3,36.8H55.4v14.6l9.4,4.6c0.4,0.2,0.6,0.5,0.6,0.9H83v-6.5C83,40.7,79.6,36.8,66.3,36.8z"/>
		<path class="st0" d="M50,65.1c-0.5,0.3-1.1,0.1-1.4-0.4c-0.1-0.2-0.1-0.3-0.1-0.5V57H27.8v6.6c0,9.7,3.4,13.5,16.7,13.5h10.9V62.5
			L50,65.1z"/>
		<circle class="st1" cx="57" cy="56.9" r="54.5"/>
	</g>
</g>
</svg>
